{
"asset": {
	"generator": "GDX glTF exporter 1.0",
	"version": "2.0"
},
"scenes": [
	{
		"nodes": [ 0 ]
	}
],
"nodes": [
	{
		"name": "Sketchfab_model",
		"children": [ 1 ],
		"rotation": [ -0.7071068, 0, 0, 0.7071067 ]
	},
	{
		"name": "06d5dc33403a41dca8051aa5e4ba4da7.fbx",
		"children": [ 2 ],
		"rotation": [ 0.7071068, 0, 0, 0.7071067 ]
	},
	{
		"name": "RootNode",
		"children": [ 3 ]
	},
	{
		"name": "Stanford Bunny",
		"children": [ 4 ],
		"scale": [ 100, 100, 100 ]
	},
	{
		"name": "Stanford Bunny_Wood Light_0",
		"mesh": 0
	}
],
"meshes": [
	{
		"primitives": [
			{
				"attributes": {
					"NORMAL": 0,
					"POSITION": 1,
					"TEXCOORD_0": 2
				},
				"indices": 3,
				"material": 0
			}
		]
	}
],
"accessors": [
	{
		"bufferView": 0,
		"componentType": 5126,
		"count": 18281,
		"type": "VEC3"
	},
	{
		"bufferView": 1,
		"componentType": 5126,
		"count": 18281,
		"type": "VEC3",
		"min": [ -0.0076298383, -0.007555502, -0.005910256 ],
		"max": [ 0.0076298383, 0.007555502, 0.005910256 ]
	},
	{
		"bufferView": 2,
		"componentType": 5126,
		"count": 18281,
		"type": "VEC2"
	},
	{
		"bufferView": 3,
		"componentType": 5123,
		"count": 91014,
		"type": "SCALAR"
	}
],
"materials": [
	{
		"name": "Wood_Light",
		"pbrMetallicRoughness": {
			"baseColorFactor": [ 0.6847848, 0.017071351, 0.017071351, 1 ],
			"metallicFactor": 0,
			"roughnessFactor": 0.8956101
		}
	}
],
"bufferViews": [
	{
		"byteLength": 219372,
		"buffer": 0
	},
	{
		"byteOffset": 219372,
		"byteLength": 219372,
		"buffer": 0
	},
	{
		"byteOffset": 438744,
		"byteLength": 146248,
		"buffer": 0
	},
	{
		"byteOffset": 584992,
		"byteLength": 182028,
		"buffer": 0
	}
],
"buffers": [
	{
		"uri": "Bunny.bin",
		"byteLength": 767020
	}
]
}